<mxfile host="app.diagrams.net" modified="2022-07-27T04:38:00.524Z" agent="5.0 (Windows NT 10.0; Win64; x64) AppleWebKit/537.36 (KHTML, like Gecko) Chrome/103.0.0.0 Safari/537.36" etag="BS4q-JOr-HD_3oUDR-XZ" version="20.1.1" type="github">
  <diagram id="xcGwt7KqN-pnkv3arTzr" name="Page-1">
    <mxGraphModel dx="2053" dy="731" grid="1" gridSize="10" guides="1" tooltips="1" connect="1" arrows="1" fold="1" page="1" pageScale="1" pageWidth="850" pageHeight="1100" math="0" shadow="0">
      <root>
        <mxCell id="0" />
        <mxCell id="1" parent="0" />
        <mxCell id="QJUj09sbtwmFMDvBYPot-6" style="edgeStyle=orthogonalEdgeStyle;rounded=0;orthogonalLoop=1;jettySize=auto;html=1;entryX=0.5;entryY=0.075;entryDx=0;entryDy=0;entryPerimeter=0;fontFamily=Times New Roman;verticalAlign=middle;fontSize=16;" parent="1" source="YuPIQEYtRNLdqr7uBslR-204" target="QJUj09sbtwmFMDvBYPot-5" edge="1">
          <mxGeometry relative="1" as="geometry" />
        </mxCell>
        <mxCell id="QJUj09sbtwmFMDvBYPot-9" style="edgeStyle=orthogonalEdgeStyle;rounded=0;orthogonalLoop=1;jettySize=auto;html=1;fontFamily=Times New Roman;verticalAlign=middle;fontSize=16;" parent="1" source="YuPIQEYtRNLdqr7uBslR-204" target="QJUj09sbtwmFMDvBYPot-8" edge="1">
          <mxGeometry relative="1" as="geometry" />
        </mxCell>
        <mxCell id="QJUj09sbtwmFMDvBYPot-17" style="edgeStyle=orthogonalEdgeStyle;rounded=0;orthogonalLoop=1;jettySize=auto;html=1;fontFamily=Times New Roman;verticalAlign=middle;fontSize=16;" parent="1" source="YuPIQEYtRNLdqr7uBslR-204" target="QJUj09sbtwmFMDvBYPot-15" edge="1">
          <mxGeometry relative="1" as="geometry" />
        </mxCell>
        <mxCell id="QJUj09sbtwmFMDvBYPot-18" style="edgeStyle=orthogonalEdgeStyle;rounded=0;orthogonalLoop=1;jettySize=auto;html=1;entryX=0.5;entryY=0.845;entryDx=0;entryDy=0;entryPerimeter=0;fontFamily=Times New Roman;verticalAlign=middle;fontSize=16;" parent="1" source="YuPIQEYtRNLdqr7uBslR-204" target="QJUj09sbtwmFMDvBYPot-16" edge="1">
          <mxGeometry relative="1" as="geometry" />
        </mxCell>
        <mxCell id="IcCMyQnCkZVL4LBCxz7j-16" value="" style="edgeStyle=orthogonalEdgeStyle;rounded=0;orthogonalLoop=1;jettySize=auto;html=1;fontSize=16;" parent="1" source="YuPIQEYtRNLdqr7uBslR-204" edge="1">
          <mxGeometry relative="1" as="geometry">
            <mxPoint x="594.0000408333474" y="1431" as="targetPoint" />
          </mxGeometry>
        </mxCell>
        <mxCell id="IcCMyQnCkZVL4LBCxz7j-25" style="edgeStyle=orthogonalEdgeStyle;rounded=0;orthogonalLoop=1;jettySize=auto;html=1;entryX=0.5;entryY=1;entryDx=0;entryDy=0;entryPerimeter=0;fontSize=16;fontColor=#000000;" parent="1" source="YuPIQEYtRNLdqr7uBslR-204" target="IcCMyQnCkZVL4LBCxz7j-24" edge="1">
          <mxGeometry relative="1" as="geometry" />
        </mxCell>
        <UserObject label="Developer&lt;br style=&quot;font-size: 16px;&quot;&gt;" lucidchartObjectId="T5Yi.VmzLWhx" id="YuPIQEYtRNLdqr7uBslR-204">
          <mxCell style="overflow=block;blockSpacing=1;whiteSpace=wrap;aspect=fixed;html=1;points=[];align=center;verticalAlign=middle;image;image=img/lib/mscae/Support.svg;fontSize=16;spacing=0;strokeColor=#3a414a;strokeOpacity=100;rounded=1;absoluteArcSize=1;arcSize=9;fillColor=#59B4D9;strokeWidth=0.8;fontFamily=Times New Roman;" parent="1" vertex="1">
            <mxGeometry x="474" y="1373" width="76" height="115.93" as="geometry" />
          </mxCell>
        </UserObject>
        <UserObject label="Developer" lucidchartObjectId="k6YihqqPkx-E" id="YuPIQEYtRNLdqr7uBslR-205">
          <mxCell style="overflow=block;blockSpacing=1;whiteSpace=wrap;aspect=fixed;html=1;points=[];align=center;verticalAlign=middle;image;image=img/lib/mscae/Support.svg;fontSize=16;fontColor=#3a414a;spacing=0;strokeColor=#3a414a;strokeOpacity=100;rounded=1;absoluteArcSize=1;arcSize=9;fillColor=#59B4D9;strokeWidth=0.8;fontFamily=Times New Roman;" parent="1" vertex="1">
            <mxGeometry x="1920" y="1250" width="59" height="90" as="geometry" />
          </mxCell>
        </UserObject>
        <UserObject label="" lucidchartObjectId="W6Yit52WJz5J" id="YuPIQEYtRNLdqr7uBslR-206">
          <mxCell style="html=1;jettySize=18;whiteSpace=wrap;fontSize=16;strokeColor=#3a414a;strokeOpacity=100;strokeWidth=0.8;rounded=1;arcSize=12;edgeStyle=orthogonalEdgeStyle;startArrow=none;endArrow=block;endFill=1;exitY=0.5;exitPerimeter=0;entryY=0.5;entryPerimeter=0;fontFamily=Times New Roman;verticalAlign=middle;" parent="1" source="YuPIQEYtRNLdqr7uBslR-204" target="YuPIQEYtRNLdqr7uBslR-204" edge="1">
            <mxGeometry width="100" height="100" relative="1" as="geometry">
              <Array as="points">
                <mxPoint x="460" y="1438" generated="1" />
                <mxPoint x="460" y="1438" generated="1" />
              </Array>
            </mxGeometry>
          </mxCell>
        </UserObject>
        <mxCell id="IcCMyQnCkZVL4LBCxz7j-1" style="edgeStyle=orthogonalEdgeStyle;rounded=0;orthogonalLoop=1;jettySize=auto;html=1;entryX=0.075;entryY=0.465;entryDx=0;entryDy=0;entryPerimeter=0;fontSize=16;" parent="1" source="YuPIQEYtRNLdqr7uBslR-208" target="YuPIQEYtRNLdqr7uBslR-209" edge="1">
          <mxGeometry relative="1" as="geometry" />
        </mxCell>
        <mxCell id="IcCMyQnCkZVL4LBCxz7j-6" style="edgeStyle=orthogonalEdgeStyle;rounded=0;orthogonalLoop=1;jettySize=auto;html=1;entryX=0.5;entryY=0;entryDx=0;entryDy=0;entryPerimeter=0;fontSize=16;" parent="1" source="YuPIQEYtRNLdqr7uBslR-208" target="IcCMyQnCkZVL4LBCxz7j-4" edge="1">
          <mxGeometry relative="1" as="geometry" />
        </mxCell>
        <UserObject label="Authentication&lt;br style=&quot;font-size: 16px;&quot;&gt;" lucidchartObjectId="I9Yii-yrfU1V" id="YuPIQEYtRNLdqr7uBslR-208">
          <mxCell style="html=1;overflow=block;blockSpacing=1;whiteSpace=wrap;shape=mxgraph.aws4.resourceIcon;resIcon=mxgraph.aws4.security_identity_and_compliance;labelPosition=center;verticalLabelPosition=bottom;align=center;verticalAlign=middle;pointerEvents=1;fontSize=16;spacing=0;strokeColor=#ffffff;rounded=1;absoluteArcSize=1;arcSize=9;shadow=1;fillColor=#d6242d;strokeWidth=0.8;fontFamily=Times New Roman;" parent="1" vertex="1">
            <mxGeometry x="370" y="1553" width="97" height="107" as="geometry" />
          </mxCell>
        </UserObject>
        <mxCell id="9HC16AHucMmqe3nN_QcB-1" style="edgeStyle=orthogonalEdgeStyle;rounded=0;orthogonalLoop=1;jettySize=auto;html=1;fontSize=16;" edge="1" parent="1" source="YuPIQEYtRNLdqr7uBslR-209" target="YuPIQEYtRNLdqr7uBslR-204">
          <mxGeometry relative="1" as="geometry" />
        </mxCell>
        <UserObject label="Database control&lt;br style=&quot;font-size: 16px;&quot;&gt;" lucidchartObjectId="99YirCJPHeiX" id="YuPIQEYtRNLdqr7uBslR-209">
          <mxCell style="html=1;overflow=block;blockSpacing=1;whiteSpace=wrap;shape=mxgraph.aws4.resourceIcon;resIcon=mxgraph.aws4.database;labelPosition=center;verticalLabelPosition=bottom;align=center;verticalAlign=middle;pointerEvents=1;fontSize=16;spacing=0;strokeColor=#ffffff;rounded=1;absoluteArcSize=1;arcSize=9;shadow=1;fillColor=#3b48cc;strokeWidth=0.8;fontFamily=Times New Roman;" parent="1" vertex="1">
            <mxGeometry x="550" y="1553" width="97" height="97" as="geometry" />
          </mxCell>
        </UserObject>
        <UserObject label="" lucidchartObjectId="h-YidDqTquFX" id="YuPIQEYtRNLdqr7uBslR-210">
          <mxCell style="html=1;jettySize=18;whiteSpace=wrap;fontSize=16;strokeColor=#3a414a;strokeOpacity=100;strokeWidth=0.8;rounded=1;arcSize=12;edgeStyle=orthogonalEdgeStyle;startArrow=none;endArrow=block;endFill=1;exitX=0.055;exitY=0.5;exitPerimeter=0;entryX=0.5;entryY=0;entryPerimeter=0;fontFamily=Times New Roman;verticalAlign=middle;" parent="1" source="YuPIQEYtRNLdqr7uBslR-204" target="YuPIQEYtRNLdqr7uBslR-208" edge="1">
            <mxGeometry width="100" height="100" relative="1" as="geometry">
              <Array as="points" />
            </mxGeometry>
          </mxCell>
        </UserObject>
        <mxCell id="QJUj09sbtwmFMDvBYPot-44" style="edgeStyle=orthogonalEdgeStyle;rounded=0;orthogonalLoop=1;jettySize=auto;html=1;fontFamily=Times New Roman;verticalAlign=middle;fontSize=16;" parent="1" source="YuPIQEYtRNLdqr7uBslR-212" target="YuPIQEYtRNLdqr7uBslR-205" edge="1">
          <mxGeometry relative="1" as="geometry" />
        </mxCell>
        <mxCell id="IcCMyQnCkZVL4LBCxz7j-10" style="edgeStyle=orthogonalEdgeStyle;rounded=0;orthogonalLoop=1;jettySize=auto;html=1;fontSize=16;" parent="1" source="YuPIQEYtRNLdqr7uBslR-212" target="QJUj09sbtwmFMDvBYPot-24" edge="1">
          <mxGeometry relative="1" as="geometry" />
        </mxCell>
        <UserObject label="Main page" lucidchartObjectId="9-YiL2jvR9W." id="YuPIQEYtRNLdqr7uBslR-212">
          <mxCell style="overflow=block;blockSpacing=1;whiteSpace=wrap;html=1;verticalLabelPosition=bottom;verticalAlign=middle;shape=mxgraph.gcp2.container_builder;fontSize=16;fontColor=#3a414a;spacing=0;strokeColor=#3a414a;strokeOpacity=100;fillOpacity=100;fillColor=#4285f4;strokeWidth=0.8;fontFamily=Times New Roman;" parent="1" vertex="1">
            <mxGeometry x="1600" y="1360" width="136" height="85" as="geometry" />
          </mxCell>
        </UserObject>
        <mxCell id="QJUj09sbtwmFMDvBYPot-28" style="edgeStyle=orthogonalEdgeStyle;rounded=0;orthogonalLoop=1;jettySize=auto;html=1;fontFamily=Times New Roman;verticalAlign=middle;fontSize=16;" parent="1" source="YuPIQEYtRNLdqr7uBslR-213" target="QJUj09sbtwmFMDvBYPot-22" edge="1">
          <mxGeometry relative="1" as="geometry" />
        </mxCell>
        <mxCell id="IcCMyQnCkZVL4LBCxz7j-11" style="edgeStyle=orthogonalEdgeStyle;rounded=0;orthogonalLoop=1;jettySize=auto;html=1;entryX=0.5;entryY=1;entryDx=0;entryDy=0;fontSize=16;" parent="1" source="YuPIQEYtRNLdqr7uBslR-213" target="QJUj09sbtwmFMDvBYPot-24" edge="1">
          <mxGeometry relative="1" as="geometry" />
        </mxCell>
        <UserObject label="Filtering" lucidchartObjectId="8_Yi_r1ALaDi" id="YuPIQEYtRNLdqr7uBslR-213">
          <mxCell style="html=1;overflow=block;blockSpacing=1;whiteSpace=wrap;shape=mxgraph.aws3.management_console;labelPosition=center;verticalLabelPosition=bottom;align=center;verticalAlign=middle;pointerEvents=1;fontSize=16;fontColor=#3a414a;spacing=3.8;strokeColor=#3a414a;strokeOpacity=100;rounded=1;absoluteArcSize=1;arcSize=9;fillColor=#f58535;strokeWidth=0.8;fontFamily=Times New Roman;" parent="1" vertex="1">
            <mxGeometry x="1470" y="1915" width="90" height="95" as="geometry" />
          </mxCell>
        </UserObject>
        <mxCell id="QJUj09sbtwmFMDvBYPot-10" style="edgeStyle=orthogonalEdgeStyle;rounded=0;orthogonalLoop=1;jettySize=auto;html=1;entryX=0.617;entryY=1.415;entryDx=0;entryDy=0;entryPerimeter=0;fontFamily=Times New Roman;verticalAlign=middle;fontSize=16;" parent="1" source="QJUj09sbtwmFMDvBYPot-3" target="QJUj09sbtwmFMDvBYPot-8" edge="1">
          <mxGeometry relative="1" as="geometry" />
        </mxCell>
        <mxCell id="QJUj09sbtwmFMDvBYPot-12" style="edgeStyle=orthogonalEdgeStyle;rounded=0;orthogonalLoop=1;jettySize=auto;html=1;entryX=0.5;entryY=1;entryDx=0;entryDy=0;entryPerimeter=0;fontFamily=Times New Roman;verticalAlign=middle;fontSize=16;" parent="1" source="QJUj09sbtwmFMDvBYPot-3" target="QJUj09sbtwmFMDvBYPot-11" edge="1">
          <mxGeometry relative="1" as="geometry" />
        </mxCell>
        <mxCell id="9HC16AHucMmqe3nN_QcB-52" style="edgeStyle=orthogonalEdgeStyle;rounded=0;orthogonalLoop=1;jettySize=auto;html=1;fontSize=16;" edge="1" parent="1" source="QJUj09sbtwmFMDvBYPot-3" target="9HC16AHucMmqe3nN_QcB-26">
          <mxGeometry relative="1" as="geometry">
            <Array as="points">
              <mxPoint x="180" y="1519" />
            </Array>
          </mxGeometry>
        </mxCell>
        <mxCell id="9HC16AHucMmqe3nN_QcB-61" style="edgeStyle=orthogonalEdgeStyle;rounded=0;orthogonalLoop=1;jettySize=auto;html=1;fontSize=16;" edge="1" parent="1" source="QJUj09sbtwmFMDvBYPot-3" target="9HC16AHucMmqe3nN_QcB-60">
          <mxGeometry relative="1" as="geometry" />
        </mxCell>
        <mxCell id="QJUj09sbtwmFMDvBYPot-3" value="Users and Publishers&lt;br style=&quot;font-size: 16px;&quot;&gt;" style="outlineConnect=0;dashed=0;verticalLabelPosition=bottom;verticalAlign=middle;align=center;html=1;shape=mxgraph.aws3.users;fillColor=#D2D3D3;gradientColor=none;fontFamily=Times New Roman;fontSize=16;" parent="1" vertex="1">
          <mxGeometry x="180" y="1740" width="76" height="63" as="geometry" />
        </mxCell>
        <mxCell id="QJUj09sbtwmFMDvBYPot-20" style="edgeStyle=orthogonalEdgeStyle;rounded=0;orthogonalLoop=1;jettySize=auto;html=1;entryX=0.551;entryY=0.968;entryDx=0;entryDy=0;entryPerimeter=0;fontFamily=Times New Roman;verticalAlign=middle;fontSize=16;" parent="1" source="QJUj09sbtwmFMDvBYPot-5" target="YuPIQEYtRNLdqr7uBslR-209" edge="1">
          <mxGeometry relative="1" as="geometry" />
        </mxCell>
        <mxCell id="QJUj09sbtwmFMDvBYPot-5" value="" style="outlineConnect=0;dashed=0;verticalLabelPosition=bottom;verticalAlign=middle;align=center;html=1;shape=mxgraph.aws3.email_notification;fillColor=#D9A741;gradientColor=none;fontFamily=Times New Roman;fontSize=16;" parent="1" vertex="1">
          <mxGeometry x="690" y="1740" width="100.5" height="63" as="geometry" />
        </mxCell>
        <mxCell id="QJUj09sbtwmFMDvBYPot-8" value="Message" style="outlineConnect=0;dashed=0;verticalLabelPosition=bottom;verticalAlign=middle;align=center;html=1;shape=mxgraph.aws3.email;fillColor=#D9A741;gradientColor=none;fontFamily=Times New Roman;fontSize=16;" parent="1" vertex="1">
          <mxGeometry x="250" y="1463" width="81" height="61.5" as="geometry" />
        </mxCell>
        <mxCell id="QJUj09sbtwmFMDvBYPot-19" style="edgeStyle=orthogonalEdgeStyle;rounded=0;orthogonalLoop=1;jettySize=auto;html=1;fontFamily=Times New Roman;verticalAlign=middle;fontSize=16;" parent="1" source="QJUj09sbtwmFMDvBYPot-11" target="YuPIQEYtRNLdqr7uBslR-209" edge="1">
          <mxGeometry relative="1" as="geometry" />
        </mxCell>
        <mxCell id="IcCMyQnCkZVL4LBCxz7j-5" style="edgeStyle=orthogonalEdgeStyle;rounded=0;orthogonalLoop=1;jettySize=auto;html=1;exitX=0.5;exitY=0;exitDx=0;exitDy=0;exitPerimeter=0;fontSize=16;" parent="1" source="QJUj09sbtwmFMDvBYPot-11" target="IcCMyQnCkZVL4LBCxz7j-4" edge="1">
          <mxGeometry relative="1" as="geometry" />
        </mxCell>
        <mxCell id="IcCMyQnCkZVL4LBCxz7j-19" value="" style="edgeStyle=orthogonalEdgeStyle;rounded=0;orthogonalLoop=1;jettySize=auto;html=1;fontSize=16;fontColor=#FFFFFF;" parent="1" source="QJUj09sbtwmFMDvBYPot-11" target="IcCMyQnCkZVL4LBCxz7j-18" edge="1">
          <mxGeometry relative="1" as="geometry" />
        </mxCell>
        <mxCell id="QJUj09sbtwmFMDvBYPot-11" value="Registration&lt;br style=&quot;font-size: 16px;&quot;&gt;" style="outlineConnect=0;dashed=0;verticalLabelPosition=bottom;verticalAlign=middle;align=center;html=1;shape=mxgraph.aws3.sts;fillColor=#759C3E;gradientColor=none;fontFamily=Times New Roman;fontSize=16;" parent="1" vertex="1">
          <mxGeometry x="430" y="2120" width="61.5" height="34.5" as="geometry" />
        </mxCell>
        <mxCell id="9HC16AHucMmqe3nN_QcB-2" style="edgeStyle=orthogonalEdgeStyle;rounded=0;orthogonalLoop=1;jettySize=auto;html=1;fontSize=16;" edge="1" parent="1" source="QJUj09sbtwmFMDvBYPot-15" target="IcCMyQnCkZVL4LBCxz7j-29">
          <mxGeometry relative="1" as="geometry" />
        </mxCell>
        <mxCell id="QJUj09sbtwmFMDvBYPot-15" value="Deleted" style="outlineConnect=0;dashed=0;verticalLabelPosition=bottom;verticalAlign=middle;align=center;html=1;shape=mxgraph.aws3.cached_volume;fillColor=#E05243;gradientColor=none;fontFamily=Times New Roman;fontSize=16;" parent="1" vertex="1">
          <mxGeometry x="150" y="1210" width="60" height="73.5" as="geometry" />
        </mxCell>
        <mxCell id="9HC16AHucMmqe3nN_QcB-3" style="edgeStyle=orthogonalEdgeStyle;rounded=0;orthogonalLoop=1;jettySize=auto;html=1;fontSize=16;" edge="1" parent="1" source="QJUj09sbtwmFMDvBYPot-16">
          <mxGeometry relative="1" as="geometry">
            <mxPoint x="400" y="1100" as="targetPoint" />
          </mxGeometry>
        </mxCell>
        <mxCell id="9HC16AHucMmqe3nN_QcB-4" style="edgeStyle=orthogonalEdgeStyle;rounded=0;orthogonalLoop=1;jettySize=auto;html=1;fontSize=16;" edge="1" parent="1" source="QJUj09sbtwmFMDvBYPot-16" target="IcCMyQnCkZVL4LBCxz7j-32">
          <mxGeometry relative="1" as="geometry" />
        </mxCell>
        <mxCell id="QJUj09sbtwmFMDvBYPot-16" value="Active&lt;br style=&quot;font-size: 16px;&quot;&gt;" style="outlineConnect=0;dashed=0;verticalLabelPosition=bottom;verticalAlign=middle;align=center;html=1;shape=mxgraph.aws3.virtual_tape_library;fillColor=#E05243;gradientColor=none;fontFamily=Times New Roman;fontSize=16;" parent="1" vertex="1">
          <mxGeometry x="420" y="1210" width="60" height="73.5" as="geometry" />
        </mxCell>
        <mxCell id="IcCMyQnCkZVL4LBCxz7j-12" style="edgeStyle=orthogonalEdgeStyle;rounded=0;orthogonalLoop=1;jettySize=auto;html=1;entryX=1;entryY=0.5;entryDx=0;entryDy=0;fontSize=16;" parent="1" source="QJUj09sbtwmFMDvBYPot-22" target="QJUj09sbtwmFMDvBYPot-24" edge="1">
          <mxGeometry relative="1" as="geometry" />
        </mxCell>
        <mxCell id="QJUj09sbtwmFMDvBYPot-22" value="Searching news&amp;nbsp;&lt;br style=&quot;font-size: 16px;&quot;&gt;" style="aspect=fixed;html=1;points=[];align=center;image;fontSize=16;image=img/lib/azure2/general/Search_Grid.svg;fontFamily=Times New Roman;verticalAlign=middle;" parent="1" vertex="1">
          <mxGeometry x="1620" y="1770" width="68" height="67" as="geometry" />
        </mxCell>
        <mxCell id="IcCMyQnCkZVL4LBCxz7j-13" style="edgeStyle=orthogonalEdgeStyle;rounded=0;orthogonalLoop=1;jettySize=auto;html=1;entryX=0.844;entryY=0.399;entryDx=0;entryDy=0;entryPerimeter=0;fontSize=16;" parent="1" source="QJUj09sbtwmFMDvBYPot-24" target="QJUj09sbtwmFMDvBYPot-48" edge="1">
          <mxGeometry relative="1" as="geometry">
            <Array as="points">
              <mxPoint x="1364" y="2140" />
              <mxPoint x="2324" y="2140" />
            </Array>
          </mxGeometry>
        </mxCell>
        <mxCell id="QJUj09sbtwmFMDvBYPot-24" value="News" style="shape=image;html=1;verticalAlign=middle;verticalLabelPosition=bottom;labelBackgroundColor=#ffffff;imageAspect=0;aspect=fixed;image=https://cdn1.iconfinder.com/data/icons/ui-essential-17/32/UI_Essential_Outline_2_essential-app-ui-news-feed-128.png;fontFamily=Times New Roman;fontSize=16;" parent="1" vertex="1">
          <mxGeometry x="1300" y="1510" width="128" height="128" as="geometry" />
        </mxCell>
        <mxCell id="QJUj09sbtwmFMDvBYPot-33" style="edgeStyle=orthogonalEdgeStyle;rounded=0;orthogonalLoop=1;jettySize=auto;html=1;entryX=0.76;entryY=0;entryDx=0;entryDy=0;entryPerimeter=0;fontFamily=Times New Roman;verticalAlign=middle;fontSize=16;" parent="1" source="QJUj09sbtwmFMDvBYPot-29" target="QJUj09sbtwmFMDvBYPot-32" edge="1">
          <mxGeometry relative="1" as="geometry" />
        </mxCell>
        <mxCell id="QJUj09sbtwmFMDvBYPot-39" style="edgeStyle=orthogonalEdgeStyle;rounded=0;orthogonalLoop=1;jettySize=auto;html=1;fontFamily=Times New Roman;verticalAlign=middle;fontSize=16;" parent="1" source="QJUj09sbtwmFMDvBYPot-29" target="QJUj09sbtwmFMDvBYPot-37" edge="1">
          <mxGeometry relative="1" as="geometry">
            <Array as="points">
              <mxPoint x="2470" y="1960" />
            </Array>
          </mxGeometry>
        </mxCell>
        <mxCell id="QJUj09sbtwmFMDvBYPot-47" style="edgeStyle=orthogonalEdgeStyle;rounded=0;orthogonalLoop=1;jettySize=auto;html=1;entryX=0.929;entryY=0.787;entryDx=0;entryDy=0;entryPerimeter=0;fontFamily=Times New Roman;verticalAlign=middle;fontSize=16;" parent="1" source="QJUj09sbtwmFMDvBYPot-29" target="YuPIQEYtRNLdqr7uBslR-212" edge="1">
          <mxGeometry relative="1" as="geometry" />
        </mxCell>
        <mxCell id="QJUj09sbtwmFMDvBYPot-54" style="edgeStyle=orthogonalEdgeStyle;rounded=0;orthogonalLoop=1;jettySize=auto;html=1;entryX=1;entryY=0.75;entryDx=0;entryDy=0;entryPerimeter=0;fontFamily=Times New Roman;verticalAlign=middle;fontSize=16;" parent="1" source="QJUj09sbtwmFMDvBYPot-29" target="QJUj09sbtwmFMDvBYPot-53" edge="1">
          <mxGeometry relative="1" as="geometry" />
        </mxCell>
        <mxCell id="QJUj09sbtwmFMDvBYPot-29" value="Users&lt;br style=&quot;font-size: 16px;&quot;&gt;" style="html=1;verticalLabelPosition=bottom;align=center;labelBackgroundColor=#ffffff;verticalAlign=middle;strokeWidth=2;strokeColor=#0080F0;shadow=0;dashed=0;shape=mxgraph.ios7.icons.user;fontFamily=Times New Roman;fontSize=16;" parent="1" vertex="1">
          <mxGeometry x="2450" y="1451.25" width="80" height="80" as="geometry" />
        </mxCell>
        <mxCell id="QJUj09sbtwmFMDvBYPot-34" style="edgeStyle=orthogonalEdgeStyle;rounded=0;orthogonalLoop=1;jettySize=auto;html=1;fontFamily=Times New Roman;verticalAlign=middle;fontSize=16;" parent="1" source="QJUj09sbtwmFMDvBYPot-32" target="YuPIQEYtRNLdqr7uBslR-212" edge="1">
          <mxGeometry relative="1" as="geometry" />
        </mxCell>
        <mxCell id="QJUj09sbtwmFMDvBYPot-42" style="edgeStyle=orthogonalEdgeStyle;rounded=0;orthogonalLoop=1;jettySize=auto;html=1;entryX=1;entryY=0.5;entryDx=0;entryDy=0;entryPerimeter=0;fontFamily=Times New Roman;verticalAlign=middle;fontSize=16;" parent="1" source="QJUj09sbtwmFMDvBYPot-32" target="QJUj09sbtwmFMDvBYPot-37" edge="1">
          <mxGeometry relative="1" as="geometry">
            <Array as="points">
              <mxPoint x="2370" y="1915" />
            </Array>
          </mxGeometry>
        </mxCell>
        <mxCell id="QJUj09sbtwmFMDvBYPot-43" style="edgeStyle=orthogonalEdgeStyle;rounded=0;orthogonalLoop=1;jettySize=auto;html=1;entryX=1;entryY=0.3;entryDx=0;entryDy=0;fontFamily=Times New Roman;verticalAlign=middle;fontSize=16;" parent="1" source="QJUj09sbtwmFMDvBYPot-32" target="QJUj09sbtwmFMDvBYPot-38" edge="1">
          <mxGeometry relative="1" as="geometry" />
        </mxCell>
        <mxCell id="QJUj09sbtwmFMDvBYPot-32" value="Registration" style="shape=mxgraph.signs.healthcare.registration;html=1;pointerEvents=1;fillColor=#000000;strokeColor=none;verticalLabelPosition=bottom;verticalAlign=middle;align=center;fontFamily=Times New Roman;fontSize=16;" parent="1" vertex="1">
          <mxGeometry x="2280" y="1620" width="96" height="98" as="geometry" />
        </mxCell>
        <mxCell id="QJUj09sbtwmFMDvBYPot-50" style="edgeStyle=orthogonalEdgeStyle;rounded=0;orthogonalLoop=1;jettySize=auto;html=1;entryX=0.548;entryY=0.041;entryDx=0;entryDy=0;entryPerimeter=0;fontFamily=Times New Roman;verticalAlign=middle;fontSize=16;exitX=1;exitY=0.5;exitDx=0;exitDy=0;exitPerimeter=0;" parent="1" source="QJUj09sbtwmFMDvBYPot-37" target="QJUj09sbtwmFMDvBYPot-48" edge="1">
          <mxGeometry relative="1" as="geometry" />
        </mxCell>
        <mxCell id="QJUj09sbtwmFMDvBYPot-37" value="Subscribtion&lt;br style=&quot;font-size: 16px;&quot;&gt;" style="outlineConnect=0;dashed=0;verticalLabelPosition=bottom;verticalAlign=middle;align=center;html=1;shape=mxgraph.aws3.email_notification;fillColor=#D9A741;gradientColor=none;fontFamily=Times New Roman;fontSize=16;" parent="1" vertex="1">
          <mxGeometry x="2100" y="1870" width="100.5" height="90" as="geometry" />
        </mxCell>
        <mxCell id="QJUj09sbtwmFMDvBYPot-49" style="edgeStyle=orthogonalEdgeStyle;rounded=0;orthogonalLoop=1;jettySize=auto;html=1;entryX=0.933;entryY=1.086;entryDx=0;entryDy=0;entryPerimeter=0;fontFamily=Times New Roman;verticalAlign=middle;fontSize=16;" parent="1" source="QJUj09sbtwmFMDvBYPot-38" target="QJUj09sbtwmFMDvBYPot-48" edge="1">
          <mxGeometry relative="1" as="geometry" />
        </mxCell>
        <mxCell id="QJUj09sbtwmFMDvBYPot-38" value="Complain" style="shape=message;html=1;whiteSpace=wrap;html=1;outlineConnect=0;fontFamily=Times New Roman;verticalAlign=middle;fontSize=16;" parent="1" vertex="1">
          <mxGeometry x="1920" y="1750" width="90" height="60" as="geometry" />
        </mxCell>
        <UserObject label="Database control&lt;br style=&quot;font-size: 16px;&quot;&gt;" lucidchartObjectId="99YirCJPHeiX" id="QJUj09sbtwmFMDvBYPot-48">
          <mxCell style="html=1;overflow=block;blockSpacing=1;whiteSpace=wrap;shape=mxgraph.aws4.resourceIcon;resIcon=mxgraph.aws4.database;labelPosition=center;verticalLabelPosition=bottom;align=center;verticalAlign=middle;pointerEvents=1;fontSize=16;spacing=0;strokeColor=#ffffff;rounded=1;absoluteArcSize=1;arcSize=9;shadow=1;fillColor=#3b48cc;strokeWidth=0.8;fontFamily=Times New Roman;" parent="1" vertex="1">
            <mxGeometry x="2241.5" y="2070" width="97" height="97" as="geometry" />
          </mxCell>
        </UserObject>
        <mxCell id="QJUj09sbtwmFMDvBYPot-56" value="" style="edgeStyle=orthogonalEdgeStyle;rounded=0;orthogonalLoop=1;jettySize=auto;html=1;fontFamily=Times New Roman;verticalAlign=middle;fontSize=16;" parent="1" source="QJUj09sbtwmFMDvBYPot-53" target="QJUj09sbtwmFMDvBYPot-55" edge="1">
          <mxGeometry relative="1" as="geometry" />
        </mxCell>
        <mxCell id="QJUj09sbtwmFMDvBYPot-53" value="Profile" style="html=1;strokeColor=none;fillColor=#0079D6;labelPosition=center;verticalLabelPosition=middle;verticalAlign=middle;align=center;fontSize=16;outlineConnect=0;spacingTop=-6;fontColor=#FFFFFF;sketch=0;shape=mxgraph.sitemap.profile;fontFamily=Times New Roman;" parent="1" vertex="1">
          <mxGeometry x="2230" y="1298" width="120" height="70" as="geometry" />
        </mxCell>
        <mxCell id="QJUj09sbtwmFMDvBYPot-55" value="Edit" style="ellipse;whiteSpace=wrap;html=1;verticalAlign=middle;fillColor=#0079D6;strokeColor=none;fontColor=#FFFFFF;spacingTop=-6;sketch=0;shadow=0;fillStyle=auto;fontFamily=Times New Roman;fontSize=16;" parent="1" vertex="1">
          <mxGeometry x="2450" y="1303" width="120" height="60" as="geometry" />
        </mxCell>
        <mxCell id="IcCMyQnCkZVL4LBCxz7j-4" value="Main page" style="outlineConnect=0;dashed=0;verticalLabelPosition=bottom;verticalAlign=top;align=center;html=1;shape=mxgraph.aws3.requester;fillColor=#ACACAC;gradientColor=none;fontSize=16;" parent="1" vertex="1">
          <mxGeometry x="425" y="1820" width="55.5" height="64.5" as="geometry" />
        </mxCell>
        <mxCell id="IcCMyQnCkZVL4LBCxz7j-18" value="when login, Active" style="ellipse;whiteSpace=wrap;html=1;fontSize=16;fontFamily=Times New Roman;fillColor=#759C3E;dashed=0;gradientColor=none;" parent="1" vertex="1">
          <mxGeometry x="401.75" y="1992.75" width="120" height="60" as="geometry" />
        </mxCell>
        <mxCell id="IcCMyQnCkZVL4LBCxz7j-22" style="edgeStyle=orthogonalEdgeStyle;rounded=0;orthogonalLoop=1;jettySize=auto;html=1;entryX=0.24;entryY=0;entryDx=0;entryDy=0;entryPerimeter=0;fontSize=16;fontColor=#FFFFFF;" parent="1" source="IcCMyQnCkZVL4LBCxz7j-20" target="QJUj09sbtwmFMDvBYPot-3" edge="1">
          <mxGeometry relative="1" as="geometry" />
        </mxCell>
        <mxCell id="IcCMyQnCkZVL4LBCxz7j-27" style="edgeStyle=orthogonalEdgeStyle;rounded=0;orthogonalLoop=1;jettySize=auto;html=1;fontSize=16;fontColor=#000000;" parent="1" source="IcCMyQnCkZVL4LBCxz7j-20" target="QJUj09sbtwmFMDvBYPot-11" edge="1">
          <mxGeometry relative="1" as="geometry">
            <Array as="points">
              <mxPoint x="510" y="1670" />
              <mxPoint x="510" y="2137" />
            </Array>
          </mxGeometry>
        </mxCell>
        <mxCell id="IcCMyQnCkZVL4LBCxz7j-35" style="edgeStyle=orthogonalEdgeStyle;rounded=0;orthogonalLoop=1;jettySize=auto;html=1;fontSize=16;fontColor=#000000;" parent="1" source="IcCMyQnCkZVL4LBCxz7j-20" target="IcCMyQnCkZVL4LBCxz7j-21" edge="1">
          <mxGeometry relative="1" as="geometry" />
        </mxCell>
        <mxCell id="IcCMyQnCkZVL4LBCxz7j-37" value="" style="edgeStyle=orthogonalEdgeStyle;rounded=0;orthogonalLoop=1;jettySize=auto;html=1;fontSize=16;fontColor=#000000;" parent="1" source="IcCMyQnCkZVL4LBCxz7j-20" edge="1">
          <mxGeometry relative="1" as="geometry">
            <mxPoint x="100" y="1800" as="targetPoint" />
          </mxGeometry>
        </mxCell>
        <mxCell id="IcCMyQnCkZVL4LBCxz7j-20" value="Users&lt;br style=&quot;font-size: 16px;&quot;&gt;" style="fontColor=#0066CC;verticalAlign=top;verticalLabelPosition=bottom;labelPosition=center;align=center;html=1;outlineConnect=0;fillColor=#CCCCCC;strokeColor=#6881B3;gradientColor=none;gradientDirection=north;strokeWidth=2;shape=mxgraph.networks.users;labelBackgroundColor=none;fontSize=16;" parent="1" vertex="1">
          <mxGeometry x="55" y="1630" width="90" height="80" as="geometry" />
        </mxCell>
        <mxCell id="IcCMyQnCkZVL4LBCxz7j-23" style="edgeStyle=orthogonalEdgeStyle;rounded=0;orthogonalLoop=1;jettySize=auto;html=1;fontSize=16;fontColor=#FFFFFF;" parent="1" source="IcCMyQnCkZVL4LBCxz7j-21" edge="1">
          <mxGeometry relative="1" as="geometry">
            <mxPoint x="210" y="1820" as="targetPoint" />
          </mxGeometry>
        </mxCell>
        <mxCell id="IcCMyQnCkZVL4LBCxz7j-26" style="edgeStyle=orthogonalEdgeStyle;rounded=0;orthogonalLoop=1;jettySize=auto;html=1;entryX=0.75;entryY=1;entryDx=0;entryDy=0;entryPerimeter=0;fontSize=16;fontColor=#000000;" parent="1" source="IcCMyQnCkZVL4LBCxz7j-21" target="QJUj09sbtwmFMDvBYPot-11" edge="1">
          <mxGeometry relative="1" as="geometry" />
        </mxCell>
        <mxCell id="IcCMyQnCkZVL4LBCxz7j-39" value="" style="edgeStyle=orthogonalEdgeStyle;rounded=0;orthogonalLoop=1;jettySize=auto;html=1;fontSize=16;fontColor=#000000;" parent="1" source="IcCMyQnCkZVL4LBCxz7j-21" edge="1">
          <mxGeometry relative="1" as="geometry">
            <mxPoint x="69" y="1795.5" as="targetPoint" />
          </mxGeometry>
        </mxCell>
        <mxCell id="IcCMyQnCkZVL4LBCxz7j-41" value="" style="edgeStyle=orthogonalEdgeStyle;rounded=0;orthogonalLoop=1;jettySize=auto;html=1;fontSize=16;fontColor=#FFFFFF;" parent="1" source="IcCMyQnCkZVL4LBCxz7j-21" target="IcCMyQnCkZVL4LBCxz7j-40" edge="1">
          <mxGeometry relative="1" as="geometry" />
        </mxCell>
        <mxCell id="IcCMyQnCkZVL4LBCxz7j-21" value="Publisher company" style="sketch=0;outlineConnect=0;fontColor=#232F3E;gradientColor=none;fillColor=#232F3D;strokeColor=none;dashed=0;verticalLabelPosition=bottom;verticalAlign=top;align=center;html=1;fontSize=16;fontStyle=0;aspect=fixed;pointerEvents=1;shape=mxgraph.aws4.users;labelBackgroundColor=none;" parent="1" vertex="1">
          <mxGeometry x="30" y="1884.5" width="78" height="78" as="geometry" />
        </mxCell>
        <mxCell id="IcCMyQnCkZVL4LBCxz7j-33" style="edgeStyle=orthogonalEdgeStyle;rounded=0;orthogonalLoop=1;jettySize=auto;html=1;fontSize=16;fontColor=#000000;" parent="1" source="IcCMyQnCkZVL4LBCxz7j-24" target="IcCMyQnCkZVL4LBCxz7j-29" edge="1">
          <mxGeometry relative="1" as="geometry" />
        </mxCell>
        <mxCell id="IcCMyQnCkZVL4LBCxz7j-34" style="edgeStyle=orthogonalEdgeStyle;rounded=0;orthogonalLoop=1;jettySize=auto;html=1;fontSize=16;fontColor=#000000;" parent="1" source="IcCMyQnCkZVL4LBCxz7j-24" edge="1">
          <mxGeometry relative="1" as="geometry">
            <mxPoint x="240" y="1100" as="targetPoint" />
          </mxGeometry>
        </mxCell>
        <mxCell id="IcCMyQnCkZVL4LBCxz7j-24" value="&lt;font color=&quot;#000000&quot; style=&quot;font-size: 16px;&quot;&gt;Block&lt;/font&gt;" style="fillColor=#6ABD46;verticalLabelPosition=bottom;sketch=0;html=1;strokeColor=#ffffff;verticalAlign=top;align=center;points=[[0.145,0.145,0],[0.5,0,0],[0.855,0.145,0],[1,0.5,0],[0.855,0.855,0],[0.5,1,0],[0.145,0.855,0],[0,0.5,0]];pointerEvents=1;shape=mxgraph.cisco_safe.compositeIcon;bgIcon=ellipse;resIcon=mxgraph.cisco_safe.capability.block;labelBackgroundColor=none;fontSize=16;fontColor=#FFFFFF;" parent="1" vertex="1">
          <mxGeometry x="280" y="1140" width="60" height="63" as="geometry" />
        </mxCell>
        <mxCell id="IcCMyQnCkZVL4LBCxz7j-29" value="Users" style="html=1;verticalLabelPosition=bottom;align=center;labelBackgroundColor=#ffffff;verticalAlign=top;strokeWidth=2;strokeColor=#0080F0;shadow=0;dashed=0;shape=mxgraph.ios7.icons.user;fontSize=16;fontColor=#000000;" parent="1" vertex="1">
          <mxGeometry x="370.75" y="1059" width="30" height="30" as="geometry" />
        </mxCell>
        <mxCell id="IcCMyQnCkZVL4LBCxz7j-32" value="Publisher" style="html=1;verticalLabelPosition=bottom;align=center;labelBackgroundColor=#ffffff;verticalAlign=top;strokeWidth=2;strokeColor=#0080F0;shadow=0;dashed=0;shape=mxgraph.ios7.icons.user;fontSize=16;fontColor=#000000;" parent="1" vertex="1">
          <mxGeometry x="230" y="1040" width="30" height="30" as="geometry" />
        </mxCell>
        <mxCell id="IcCMyQnCkZVL4LBCxz7j-40" value="Can block if they are log in" style="whiteSpace=wrap;html=1;verticalAlign=top;fillColor=#FFFFFF;strokeColor=none;fontColor=#333333;sketch=0;gradientColor=none;dashed=0;fontStyle=0;labelBackgroundColor=none;fontSize=16;" parent="1" vertex="1">
          <mxGeometry x="9" y="1735.5" width="81" height="44.5" as="geometry" />
        </mxCell>
        <mxCell id="9HC16AHucMmqe3nN_QcB-5" value="Subscribtion email&lt;br&gt;" style="dashed=0;outlineConnect=0;html=1;align=center;labelPosition=center;verticalLabelPosition=bottom;verticalAlign=top;shape=mxgraph.weblogos.gmail;fontSize=16;" vertex="1" parent="1">
          <mxGeometry x="305.95" y="2440" width="64.8" height="46.800000000000004" as="geometry" />
        </mxCell>
        <mxCell id="9HC16AHucMmqe3nN_QcB-40" style="edgeStyle=orthogonalEdgeStyle;rounded=0;orthogonalLoop=1;jettySize=auto;html=1;fontSize=16;" edge="1" parent="1" source="9HC16AHucMmqe3nN_QcB-6" target="9HC16AHucMmqe3nN_QcB-7">
          <mxGeometry relative="1" as="geometry" />
        </mxCell>
        <mxCell id="9HC16AHucMmqe3nN_QcB-6" value="Contact message" style="image;image=img/lib/atlassian/Hipchat_Logo.svg;fontSize=16;" vertex="1" parent="1">
          <mxGeometry x="50" y="2540" width="66" height="62" as="geometry" />
        </mxCell>
        <mxCell id="9HC16AHucMmqe3nN_QcB-51" style="edgeStyle=orthogonalEdgeStyle;rounded=0;orthogonalLoop=1;jettySize=auto;html=1;entryX=0.258;entryY=0.851;entryDx=0;entryDy=0;entryPerimeter=0;fontSize=16;" edge="1" parent="1" source="9HC16AHucMmqe3nN_QcB-7" target="9HC16AHucMmqe3nN_QcB-24">
          <mxGeometry relative="1" as="geometry" />
        </mxCell>
        <mxCell id="9HC16AHucMmqe3nN_QcB-7" value="saving data" style="verticalLabelPosition=bottom;verticalAlign=top;html=1;shape=mxgraph.infographic.cylinder;fillColor=#10739E;strokeColor=none;fontSize=16;" vertex="1" parent="1">
          <mxGeometry x="655" y="2560" width="60" height="100" as="geometry" />
        </mxCell>
        <mxCell id="9HC16AHucMmqe3nN_QcB-30" style="edgeStyle=orthogonalEdgeStyle;rounded=0;orthogonalLoop=1;jettySize=auto;html=1;fontSize=16;" edge="1" parent="1" source="9HC16AHucMmqe3nN_QcB-10" target="9HC16AHucMmqe3nN_QcB-15">
          <mxGeometry relative="1" as="geometry" />
        </mxCell>
        <mxCell id="9HC16AHucMmqe3nN_QcB-35" style="edgeStyle=orthogonalEdgeStyle;rounded=0;orthogonalLoop=1;jettySize=auto;html=1;entryX=0.447;entryY=1.121;entryDx=0;entryDy=0;entryPerimeter=0;fontSize=16;" edge="1" parent="1" source="9HC16AHucMmqe3nN_QcB-10" target="9HC16AHucMmqe3nN_QcB-20">
          <mxGeometry relative="1" as="geometry" />
        </mxCell>
        <mxCell id="9HC16AHucMmqe3nN_QcB-39" style="edgeStyle=orthogonalEdgeStyle;rounded=0;orthogonalLoop=1;jettySize=auto;html=1;entryX=0.25;entryY=1;entryDx=0;entryDy=0;fontSize=16;" edge="1" parent="1" source="9HC16AHucMmqe3nN_QcB-10" target="9HC16AHucMmqe3nN_QcB-6">
          <mxGeometry relative="1" as="geometry" />
        </mxCell>
        <mxCell id="9HC16AHucMmqe3nN_QcB-44" style="edgeStyle=orthogonalEdgeStyle;rounded=0;orthogonalLoop=1;jettySize=auto;html=1;fontSize=16;" edge="1" parent="1" source="9HC16AHucMmqe3nN_QcB-10">
          <mxGeometry relative="1" as="geometry">
            <mxPoint x="360" y="2482.9411764705883" as="targetPoint" />
          </mxGeometry>
        </mxCell>
        <mxCell id="9HC16AHucMmqe3nN_QcB-48" style="edgeStyle=orthogonalEdgeStyle;rounded=0;orthogonalLoop=1;jettySize=auto;html=1;entryX=0.493;entryY=0.982;entryDx=0;entryDy=0;entryPerimeter=0;fontSize=16;" edge="1" parent="1" source="9HC16AHucMmqe3nN_QcB-10" target="9HC16AHucMmqe3nN_QcB-18">
          <mxGeometry relative="1" as="geometry" />
        </mxCell>
        <mxCell id="9HC16AHucMmqe3nN_QcB-10" value="users" style="sketch=0;pointerEvents=1;shadow=0;dashed=0;html=1;strokeColor=none;fillColor=#505050;labelPosition=center;verticalLabelPosition=bottom;verticalAlign=top;outlineConnect=0;align=center;shape=mxgraph.office.users.user;fontSize=16;" vertex="1" parent="1">
          <mxGeometry x="134" y="3020" width="46" height="50" as="geometry" />
        </mxCell>
        <mxCell id="9HC16AHucMmqe3nN_QcB-34" style="edgeStyle=orthogonalEdgeStyle;rounded=0;orthogonalLoop=1;jettySize=auto;html=1;fontSize=16;" edge="1" parent="1" source="9HC16AHucMmqe3nN_QcB-13" target="9HC16AHucMmqe3nN_QcB-19">
          <mxGeometry relative="1" as="geometry" />
        </mxCell>
        <mxCell id="9HC16AHucMmqe3nN_QcB-37" style="edgeStyle=orthogonalEdgeStyle;rounded=0;orthogonalLoop=1;jettySize=auto;html=1;fontSize=16;" edge="1" parent="1" source="9HC16AHucMmqe3nN_QcB-13" target="9HC16AHucMmqe3nN_QcB-36">
          <mxGeometry relative="1" as="geometry" />
        </mxCell>
        <mxCell id="9HC16AHucMmqe3nN_QcB-38" style="edgeStyle=orthogonalEdgeStyle;rounded=0;orthogonalLoop=1;jettySize=auto;html=1;fontSize=16;" edge="1" parent="1" source="9HC16AHucMmqe3nN_QcB-13" target="9HC16AHucMmqe3nN_QcB-17">
          <mxGeometry relative="1" as="geometry" />
        </mxCell>
        <mxCell id="9HC16AHucMmqe3nN_QcB-13" value="" style="sketch=0;pointerEvents=1;shadow=0;dashed=0;html=1;strokeColor=none;labelPosition=center;verticalLabelPosition=bottom;verticalAlign=top;outlineConnect=0;align=center;shape=mxgraph.office.security.lock_unprotected;fillColor=#7FBA42;fontSize=16;" vertex="1" parent="1">
          <mxGeometry x="291" y="2785" width="38" height="55" as="geometry" />
        </mxCell>
        <mxCell id="9HC16AHucMmqe3nN_QcB-28" value="" style="edgeStyle=orthogonalEdgeStyle;rounded=0;orthogonalLoop=1;jettySize=auto;html=1;fontSize=16;" edge="1" parent="1" source="9HC16AHucMmqe3nN_QcB-15" target="9HC16AHucMmqe3nN_QcB-27">
          <mxGeometry relative="1" as="geometry">
            <Array as="points">
              <mxPoint x="370" y="2927" />
              <mxPoint x="370" y="2960" />
            </Array>
          </mxGeometry>
        </mxCell>
        <mxCell id="9HC16AHucMmqe3nN_QcB-32" style="edgeStyle=orthogonalEdgeStyle;rounded=0;orthogonalLoop=1;jettySize=auto;html=1;fontSize=16;" edge="1" parent="1" source="9HC16AHucMmqe3nN_QcB-15" target="9HC16AHucMmqe3nN_QcB-16">
          <mxGeometry relative="1" as="geometry" />
        </mxCell>
        <mxCell id="9HC16AHucMmqe3nN_QcB-33" style="edgeStyle=orthogonalEdgeStyle;rounded=0;orthogonalLoop=1;jettySize=auto;html=1;fontSize=16;" edge="1" parent="1" source="9HC16AHucMmqe3nN_QcB-15" target="9HC16AHucMmqe3nN_QcB-13">
          <mxGeometry relative="1" as="geometry" />
        </mxCell>
        <mxCell id="9HC16AHucMmqe3nN_QcB-15" value="login and parol" style="sketch=0;pointerEvents=1;shadow=0;dashed=0;html=1;strokeColor=none;labelPosition=center;verticalLabelPosition=bottom;verticalAlign=top;outlineConnect=0;align=center;shape=mxgraph.office.security.key_permissions;fillColor=#7FBA42;fontSize=16;" vertex="1" parent="1">
          <mxGeometry x="313" y="2900" width="25" height="53" as="geometry" />
        </mxCell>
        <mxCell id="9HC16AHucMmqe3nN_QcB-42" style="edgeStyle=orthogonalEdgeStyle;rounded=0;orthogonalLoop=1;jettySize=auto;html=1;entryX=0.45;entryY=0.96;entryDx=0;entryDy=0;entryPerimeter=0;fontSize=16;" edge="1" parent="1" source="9HC16AHucMmqe3nN_QcB-16" target="9HC16AHucMmqe3nN_QcB-23">
          <mxGeometry relative="1" as="geometry" />
        </mxCell>
        <mxCell id="9HC16AHucMmqe3nN_QcB-43" style="edgeStyle=orthogonalEdgeStyle;rounded=0;orthogonalLoop=1;jettySize=auto;html=1;fontSize=16;" edge="1" parent="1" source="9HC16AHucMmqe3nN_QcB-16" target="9HC16AHucMmqe3nN_QcB-5">
          <mxGeometry relative="1" as="geometry" />
        </mxCell>
        <mxCell id="9HC16AHucMmqe3nN_QcB-50" style="edgeStyle=orthogonalEdgeStyle;rounded=0;orthogonalLoop=1;jettySize=auto;html=1;fontSize=16;" edge="1" parent="1" source="9HC16AHucMmqe3nN_QcB-16" target="9HC16AHucMmqe3nN_QcB-49">
          <mxGeometry relative="1" as="geometry">
            <Array as="points">
              <mxPoint x="476" y="2790" />
              <mxPoint x="930" y="2790" />
            </Array>
          </mxGeometry>
        </mxCell>
        <mxCell id="9HC16AHucMmqe3nN_QcB-57" style="edgeStyle=orthogonalEdgeStyle;rounded=0;orthogonalLoop=1;jettySize=auto;html=1;fontSize=16;" edge="1" parent="1" source="9HC16AHucMmqe3nN_QcB-16" target="9HC16AHucMmqe3nN_QcB-56">
          <mxGeometry relative="1" as="geometry" />
        </mxCell>
        <mxCell id="9HC16AHucMmqe3nN_QcB-16" value="Subscribed users" style="sketch=0;pointerEvents=1;shadow=0;dashed=0;html=1;strokeColor=none;fillColor=#505050;labelPosition=center;verticalLabelPosition=bottom;verticalAlign=top;outlineConnect=0;align=center;shape=mxgraph.office.security.credentials;fontSize=16;" vertex="1" parent="1">
          <mxGeometry x="448" y="2820" width="56" height="58" as="geometry" />
        </mxCell>
        <mxCell id="9HC16AHucMmqe3nN_QcB-17" value="Filter&lt;br&gt;" style="sketch=0;aspect=fixed;html=1;points=[];align=center;image;fontSize=16;image=img/lib/mscae/Shared_Image_Galleries.svg;" vertex="1" parent="1">
          <mxGeometry x="480.5" y="2700" width="50" height="50" as="geometry" />
        </mxCell>
        <mxCell id="9HC16AHucMmqe3nN_QcB-18" value="All news" style="sketch=0;aspect=fixed;html=1;points=[];align=center;image;fontSize=16;image=img/lib/mscae/Resource_Explorer.svg;" vertex="1" parent="1">
          <mxGeometry x="-170" y="2785" width="60.87" height="56" as="geometry" />
        </mxCell>
        <mxCell id="9HC16AHucMmqe3nN_QcB-41" style="edgeStyle=orthogonalEdgeStyle;rounded=0;orthogonalLoop=1;jettySize=auto;html=1;entryX=0.5;entryY=1;entryDx=0;entryDy=0;entryPerimeter=0;fontSize=16;" edge="1" parent="1" source="9HC16AHucMmqe3nN_QcB-19" target="9HC16AHucMmqe3nN_QcB-7">
          <mxGeometry relative="1" as="geometry" />
        </mxCell>
        <mxCell id="9HC16AHucMmqe3nN_QcB-19" value="Complaining message" style="sketch=0;aspect=fixed;html=1;points=[];align=center;image;fontSize=16;image=img/lib/mscae/Notification.svg;" vertex="1" parent="1">
          <mxGeometry x="193" y="2640" width="50" height="50" as="geometry" />
        </mxCell>
        <mxCell id="9HC16AHucMmqe3nN_QcB-20" value="Read news" style="sketch=0;aspect=fixed;html=1;points=[];align=center;image;fontSize=16;image=img/lib/mscae/eBooks.svg;" vertex="1" parent="1">
          <mxGeometry x="140" y="2817" width="50" height="41" as="geometry" />
        </mxCell>
        <mxCell id="9HC16AHucMmqe3nN_QcB-31" style="edgeStyle=orthogonalEdgeStyle;rounded=0;orthogonalLoop=1;jettySize=auto;html=1;fontSize=16;" edge="1" parent="1" source="9HC16AHucMmqe3nN_QcB-21" target="9HC16AHucMmqe3nN_QcB-16">
          <mxGeometry relative="1" as="geometry" />
        </mxCell>
        <mxCell id="9HC16AHucMmqe3nN_QcB-21" value="Registration&lt;br style=&quot;font-size: 16px;&quot;&gt;" style="sketch=0;aspect=fixed;html=1;points=[];align=center;image;fontSize=16;image=img/lib/mscae/App_Registrations.svg;" vertex="1" parent="1">
          <mxGeometry x="537" y="2903" width="50" height="50" as="geometry" />
        </mxCell>
        <mxCell id="9HC16AHucMmqe3nN_QcB-23" value="Logout&lt;br&gt;" style="sketch=0;pointerEvents=1;shadow=0;dashed=0;html=1;strokeColor=none;labelPosition=center;verticalLabelPosition=bottom;verticalAlign=top;align=center;fillColor=#505050;shape=mxgraph.mscae.intune.client_software;fontSize=16;" vertex="1" parent="1">
          <mxGeometry x="620" y="2937.5" width="50" height="45" as="geometry" />
        </mxCell>
        <mxCell id="9HC16AHucMmqe3nN_QcB-24" value="" style="sketch=0;pointerEvents=1;shadow=0;dashed=0;html=1;strokeColor=none;labelPosition=center;verticalLabelPosition=bottom;verticalAlign=top;align=center;fillColor=#505050;shape=mxgraph.mscae.intune.update;fontSize=16;" vertex="1" parent="1">
          <mxGeometry x="489" y="2400" width="48" height="50" as="geometry" />
        </mxCell>
        <mxCell id="9HC16AHucMmqe3nN_QcB-25" value="send telegram" style="aspect=fixed;html=1;points=[];align=center;image;fontSize=16;image=img/lib/azure2/iot/Azure_Maps_Accounts.svg;" vertex="1" parent="1">
          <mxGeometry x="-140" y="1442" width="68" height="68" as="geometry" />
        </mxCell>
        <mxCell id="9HC16AHucMmqe3nN_QcB-53" style="edgeStyle=orthogonalEdgeStyle;rounded=0;orthogonalLoop=1;jettySize=auto;html=1;fontSize=16;" edge="1" parent="1" source="9HC16AHucMmqe3nN_QcB-26" target="9HC16AHucMmqe3nN_QcB-25">
          <mxGeometry relative="1" as="geometry" />
        </mxCell>
        <mxCell id="9HC16AHucMmqe3nN_QcB-55" style="edgeStyle=orthogonalEdgeStyle;rounded=0;orthogonalLoop=1;jettySize=auto;html=1;fontSize=16;" edge="1" parent="1" source="9HC16AHucMmqe3nN_QcB-26" target="9HC16AHucMmqe3nN_QcB-54">
          <mxGeometry relative="1" as="geometry" />
        </mxCell>
        <mxCell id="9HC16AHucMmqe3nN_QcB-26" value="Add news" style="aspect=fixed;html=1;points=[];align=center;image;fontSize=16;image=img/lib/azure2/general/Download.svg;" vertex="1" parent="1">
          <mxGeometry x="90" y="1486" width="64" height="67" as="geometry" />
        </mxCell>
        <mxCell id="9HC16AHucMmqe3nN_QcB-29" style="edgeStyle=orthogonalEdgeStyle;rounded=0;orthogonalLoop=1;jettySize=auto;html=1;entryX=-0.043;entryY=0.505;entryDx=0;entryDy=0;entryPerimeter=0;fontSize=16;" edge="1" parent="1" source="9HC16AHucMmqe3nN_QcB-27" target="9HC16AHucMmqe3nN_QcB-21">
          <mxGeometry relative="1" as="geometry" />
        </mxCell>
        <mxCell id="9HC16AHucMmqe3nN_QcB-27" value="if failure, go to registration page" style="shape=singleArrow;whiteSpace=wrap;html=1;arrowWidth=0.4;arrowSize=0.4;verticalAlign=top;fillColor=#7FBA42;strokeColor=none;sketch=0;shadow=0;dashed=0;fontSize=16;" vertex="1" parent="1">
          <mxGeometry x="385.5" y="2930" width="81.5" height="60" as="geometry" />
        </mxCell>
        <mxCell id="9HC16AHucMmqe3nN_QcB-36" value="" style="html=1;verticalLabelPosition=bottom;align=center;labelBackgroundColor=#ffffff;verticalAlign=top;strokeWidth=2;strokeColor=#0080F0;shadow=0;dashed=0;shape=mxgraph.ios7.icons.looking_glass;fontSize=16;" vertex="1" parent="1">
          <mxGeometry x="587" y="2730" width="45" height="40" as="geometry" />
        </mxCell>
        <mxCell id="9HC16AHucMmqe3nN_QcB-49" value="Profile edit and logout" style="html=1;strokeColor=none;fillColor=#0079D6;labelPosition=center;verticalLabelPosition=middle;verticalAlign=top;align=center;fontSize=12;outlineConnect=0;spacingTop=-6;fontColor=#FFFFFF;sketch=0;shape=mxgraph.sitemap.profile;" vertex="1" parent="1">
          <mxGeometry x="870" y="2650" width="120" height="70" as="geometry" />
        </mxCell>
        <mxCell id="9HC16AHucMmqe3nN_QcB-54" value="Email" style="dashed=0;outlineConnect=0;html=1;align=center;labelPosition=center;verticalLabelPosition=bottom;verticalAlign=top;shape=mxgraph.weblogos.gmail;fontSize=16;" vertex="1" parent="1">
          <mxGeometry x="-140" y="1620" width="64.8" height="46.800000000000004" as="geometry" />
        </mxCell>
        <mxCell id="9HC16AHucMmqe3nN_QcB-56" value="isActive" style="aspect=fixed;html=1;points=[];align=center;image;fontSize=12;image=img/lib/azure2/identity/Active_Directory_Connect_Health.svg;" vertex="1" parent="1">
          <mxGeometry x="800" y="2855.5" width="97.03" height="90" as="geometry" />
        </mxCell>
        <mxCell id="9HC16AHucMmqe3nN_QcB-60" value="isActive" style="aspect=fixed;html=1;points=[];align=center;image;fontSize=12;image=img/lib/azure2/identity/Active_Directory_Connect_Health.svg;" vertex="1" parent="1">
          <mxGeometry x="610" y="1870" width="97.03" height="90" as="geometry" />
        </mxCell>
      </root>
    </mxGraphModel>
  </diagram>
</mxfile>
